) (`-.                           (` .-') /`           ) (`-.
       ( OO ).                          `.( OO ),'            ( OO ).
      (_/.  _)-.-'),-----. ,--.     ,--./  .--.  .-'),-----.(_/.  _)-.
         `.'  ( OO'  .-.  '|  |.-') |      |  | ( OO'  .-.  '  `.'  /
             /Y   |  | |  ||  | OO )|  |   |  |,/   |  | |  |      /
             _) |  ||  ||  |`-' ||  |.'.|  |_)_) |  ||  |      |
        .'    _) |  | |  (|  '---.'|         |    |  | |  | .'    _)
       /  .'.    `'  '-'  '|      | |   ,'.   |    `'  '-'  '/  .'.  
      '--'   '--'   `-----' `------' '--'   '--'      `-----''--'   '--'


      ΓûÇΓûÇΓûÇΓûÇΓûÇΓûÇΓûÇΓûÇΓûÇΓûÇΓûÇΓûÇΓûÇΓûÇΓûÇΓûÇΓûÇΓûÇΓûÇΓûÇΓûÇΓûÇΓûÇΓûÇΓûÇΓûÇΓûÇΓûÇΓûÇΓûÇΓûÇΓûÇΓûÇΓûÇΓûÇΓûÇΓûÇΓûÇΓûÇΓûÇΓûÇΓûÇΓûÇΓûÇΓûÇΓûÇΓûÇΓûÇΓûÇΓûÇΓûÇΓûÇΓûÇΓûÇΓûÇΓûÇΓûÇΓûÇΓûÇΓûÇΓûÇΓûÇΓûÇΓûÇΓûÇΓûÇΓûÇΓûÇΓûÇΓûÇ

                 ΓûêΓûæΓûæΓûæΓûæΓûæΓûæΓûæΓûæΓûæΓûæΓûæΓûæΓûæΓûæΓûæΓûæΓûæΓûæΓûæΓûæΓûæΓûæΓûæΓûæΓûæΓûæΓûæΓûæΓûæΓûæΓûæΓûæΓûæΓûæΓûæΓûæΓûæΓûæΓûê
                ΓûêΓûê The Final Destination[2009]DvDrip-LW ΓûêΓûê
                 ΓûêΓûæΓûæΓûæΓûæΓûæΓûæΓûæΓûæΓûæΓûæΓûæΓûæΓûæΓûæΓûæΓûæΓûæΓûæΓûæΓûæΓûæΓûæΓûæΓûæΓûæΓûæΓûæΓûæΓûæΓûæΓûæΓûæΓûæΓûæΓûæΓûæΓûæΓûæΓûê

File Name    : The Final Destination[2009]DvDrip-LW
Type         : Movie
Format       : AVI
File Size    : 700 MB
Duration     : 01:21:46
Language     : English
Source       : DvD
Subtitles    : None
Genre        : Horror | Thriller 
IMDB Link    : http://www.imdb.com/title/tt1144884/
IMDB Rating  : 5.1/10
IMDB Votes   : 9,603 Votes
     ΓûäΓûäΓûäΓûäΓûäΓûäΓûäΓûäΓûäΓûäΓûäΓûäΓûäΓûäΓûäΓûäΓûäΓûäΓûäΓûäΓûäΓûäΓûäΓûäΓûäΓûäΓûäΓûäΓûäΓûäΓûäΓûäΓûäΓûäΓûäΓûäΓûäΓûäΓûäΓûäΓûäΓûäΓûäΓûäΓûäΓûäΓûäΓûäΓûäΓûäΓûäΓûäΓûäΓûäΓûäΓûäΓûäΓûäΓûäΓûäΓûäΓûäΓûäΓûäΓûäΓûäΓûäΓûäΓûäΓûä
 
                        ΓûêΓûæΓûæΓûæΓûæΓûæΓûæΓûæΓûæΓûæΓûæΓûæΓûæΓûæΓûæΓûæΓûæΓûæΓûæΓûæΓûæΓûæΓûæΓûæΓûæΓûê
                       ΓûêΓûê       Video Info       ΓûêΓûê
                        ΓûêΓûæΓûæΓûæΓûæΓûæΓûæΓûæΓûæΓûæΓûæΓûæΓûæΓûæΓûæΓûæΓûæΓûæΓûæΓûæΓûæΓûæΓûæΓûæΓûæΓûê

Format                           : MPEG-4 Visual
Format profile                   : Streaming Video@L1
Format settings, BVOP            : Yes
Format settings, QPel            : No
Format settings, GMC             : No warppoints
Format settings, Matrix          : Default (H.263)
Muxing mode                      : Packed bitstream
Codec ID                         : XVID
Codec ID/Hint                    : XviD
Duration                         : 1h 21mn
Bit rate                         : 1 059 Kbps
Width                            : 640 pixels
Height                           : 272 pixels
Display aspect ratio             : 2.35
Frame rate                       : 23.976 fps
Resolution                       : 24 bits
Colorimetry                      : 4:2:0
Scan type                        : Progressive
Bits/(Pixel*Frame)               : 0.254
Stream size                      : 620 MiB (89%)
Writing library                  : XviD 1.2.1
     ΓûäΓûäΓûäΓûäΓûäΓûäΓûäΓûäΓûäΓûäΓûäΓûäΓûäΓûäΓûäΓûäΓûäΓûäΓûäΓûäΓûäΓûäΓûäΓûäΓûäΓûäΓûäΓûäΓûäΓûäΓûäΓûäΓûäΓûäΓûäΓûäΓûäΓûäΓûäΓûäΓûäΓûäΓûäΓûäΓûäΓûäΓûäΓûäΓûäΓûäΓûäΓûäΓûäΓûäΓûäΓûäΓûäΓûäΓûäΓûäΓûäΓûäΓûäΓûäΓûäΓûäΓûäΓûäΓûäΓûä

                         ΓûêΓûæΓûæΓûæΓûæΓûæΓûæΓûæΓûæΓûæΓûæΓûæΓûæΓûæΓûæΓûæΓûæΓûæΓûæΓûæΓûæΓûæΓûæΓûæΓûæΓûê
                        ΓûêΓûê      Sound Info        ΓûêΓûê
                         ΓûêΓûæΓûæΓûæΓûæΓûæΓûæΓûæΓûæΓûæΓûæΓûæΓûæΓûæΓûæΓûæΓûæΓûæΓûæΓûæΓûæΓûæΓûæΓûæΓûæΓûê

Format                           : MPEG Audio
Format version                   : Version 1
Format profile                   : Layer 3
Codec ID                         : 55
Codec ID/Hint                    : MP3
Duration                         : 1h 21mn
Bit rate mode                    : Constant
Bit rate                         : 128 Kbps
Minimum bit rate                 : 128 Kbps
Channel(s)                       : 2 channels
Sampling rate                    : 48.0 KHz
Resolution                       : 16 bits
Stream size                      : 74.9 MiB (11%)
Alignment                        : Aligned on interleaves
Interleave, duration             : 42 ms (1.00 video frame)
Interleave, preload duration     : 504 ms
Writing library                  : LAME3.98r
Encoding settings                : CBR
    ΓûäΓûäΓûäΓûäΓûäΓûäΓûäΓûäΓûäΓûäΓûäΓûäΓûäΓûäΓûäΓûäΓûäΓûäΓûäΓûäΓûäΓûäΓûäΓûäΓûäΓûäΓûäΓûäΓûäΓûäΓûäΓûäΓûäΓûäΓûäΓûäΓûäΓûäΓûäΓûäΓûäΓûäΓûäΓûäΓûäΓûäΓûäΓûäΓûäΓûäΓûäΓûäΓûäΓûäΓûäΓûäΓûäΓûäΓûäΓûäΓûäΓûäΓûäΓûäΓûäΓûäΓûäΓûäΓûäΓûä

                          ΓûêΓûæΓûæΓûæΓûæΓûæΓûæΓûæΓûæΓûæΓûæΓûæΓûæΓûæΓûæΓûæΓûæΓûæΓûæΓûæΓûæΓûæΓûæΓûæΓûæΓûê
                         ΓûêΓûê          Plot          ΓûêΓûê
                          ΓûêΓûæΓûæΓûæΓûæΓûæΓûæΓûæΓûæΓûæΓûæΓûæΓûæΓûæΓûæΓûæΓûæΓûæΓûæΓûæΓûæΓûæΓûæΓûæΓûæΓûê

Special Agent Strahm is long gone, and Det. Hoffman 
(Costas Mandylor) is now the heir to John Jigsaw's 
(Tobin Bell) terrifying legacy. FBI Agent Erickson 
(Mark Rolston) is now hot on his trail, but Hoffman 
is about to reveal Jigsaw's grand plot. Kevin Greutert 
directs this next installment of the smash horror dynasty, 
while Betsy Russell, Peter Outerbridge, Tanedra Howard and 
Shawnee Smith co-star.

Starring: Tobin Bell, Angus Macfadyen

Director: Kevin Greutert
    ΓûäΓûäΓûäΓûäΓûäΓûäΓûäΓûäΓûäΓûäΓûäΓûäΓûäΓûäΓûäΓûäΓûäΓûäΓûäΓûäΓûäΓûäΓûäΓûäΓûäΓûäΓûäΓûäΓûäΓûäΓûäΓûäΓûäΓûäΓûäΓûäΓûäΓûäΓûäΓûäΓûäΓûäΓûäΓûäΓûäΓûäΓûäΓûäΓûäΓûäΓûäΓûäΓûäΓûäΓûäΓûäΓûäΓûäΓûäΓûäΓûäΓûäΓûäΓûäΓûäΓûäΓûäΓûäΓûäΓûä

ScreenShots 
http://highspeedchat.hostzi.com/ 
http://imgshack.info/images/y5zcdmm99ohc8yczmvdf.png 
http://imgshack.info/images/3o1q23y5gzpy70ww5pgf.png 
http://imgshack.info/images/02uhwdm0vn37gq02noby.png 
http://imgshack.info/images/m4cp5eng4mcjqcmix6.jpg 
http://highspeedchat.hostzi.com/